<svg xmlns="http://www.w3.org/2000/svg" viewBox="0 0 840 180" className="logo"><defs><style>.cls-1{fill:#0f9;}.cls-2,.cls-3{fill:#00e589;}.cls-3,.cls-4{fill-rule:evenodd;}.cls-4{fill:#0f0f0f;opacity:0.4;}.cls-5{fill:#fff;}</style></defs><title>giphy-logo-2</title><g id="Layer_2" data-name="Layer 2"><g id="Layer_1-2" data-name="Layer 1"><rect class="cls-1" y="16" width="20" height="148"/><rect class="cls-1" x="120" y="56" width="20" height="108"/><rect class="cls-2" y="160" width="140" height="20"/><rect class="cls-2" width="80" height="20"/><polygon class="cls-3" points="120 40 120 20 100 20 100 0 80 0 80 20.13 80 20.16 80 40.1 80 40.13 80 60 100.42 60 120.38 60 120.38 60 140 60 140 40 120 40"/><polygon class="cls-4" points="120 80.16 120 60 140 60 120 80.16"/><polygon class="cls-4" points="80 0 80 20 60.37 20 80 0"/><path class="cls-5" d="M301.32,61.77c-10.19-9.58-22.56-12.18-31.95-12.18-22.76,0-37.54,13.58-37.54,40.93,0,18,9.22,40.14,37.38,40.14,7.39,0,18.79-1.4,26.79-7.19V105H261V75h68v61.65C320,154.42,296,164,269,164c-55.3,0-76.2-36.94-76.2-73.48s24-74.07,76.51-74.07c19.36,0,36.55,4,54.92,22.56Z"/><path class="cls-5" d="M349,160V20h39V160Z"/><path class="cls-5" d="M452,122v38H412V20h68.2c37.54,0,56.11,23.55,56.11,50.9,0,28.55-18.77,51.1-56.11,51.1Zm0-33h28.2c11,0,16.58-8.12,16.58-17.3S491,54,480.2,54H452Z"/><path class="cls-5" d="M641,160V107H590v53H551V21h39V74h51V21h39V160Z"/><path class="cls-5" d="M765.32,67.92,795.47,20H840v2.24L784,104.5V160H745V104.5L692,22V20h44.37Z"/></g></g></svg>